<?xml version="1.0" encoding="utf-8"?>
<!-- Generator: Adobe Illustrator 16.0.0, SVG Export Plug-In . SVG Version: 6.00 Build 0)  -->
<!DOCTYPE svg PUBLIC "-//W3C//DTD SVG 1.1//EN" "http://www.w3.org/Graphics/SVG/1.1/DTD/svg11.dtd">
<svg version="1.1" id="eestec_loading_svg" xmlns="http://www.w3.org/2000/svg" x="0px" y="0px" viewBox="0 0 171 222" enable-background="new 0 0 171 222" xml:space="preserve">
<g>
	<g>
		<path class="sinus" fill-rule="evenodd" clip-rule="evenodd" d="M105.279,35.448c-1.021,2.063-2.49,2.853-4.232,4.346
			c-5.263,4.519-11.254,9.177-17.39,13.997c-7.592,5.964-20.822,14.527-19.272,27.031c1.423,11.458,16.79,20.402,25.854,27.514
			c10.629,8.34,26.393,18.925,27.733,32.822c0.287,2.996,0.064,6.232-0.941,9.17c-5.727,16.736-25.739,24.33-37.603,36.201
			c-3.459-0.174-5.566,0.098-8.932,0c6.424-7.748,14.463-11.91,23.031-18.824c6.525-5.26,18.158-13.688,18.333-24.135
			c0.117-6.846-6.271-13.611-10.344-17.375c-5.104-4.726-10.419-8.98-15.037-12.55c-11.354-8.776-33.676-21.83-27.266-41.513
			c5.285-16.222,26.914-26.519,37.605-36.685C99.639,35.448,102.459,35.448,105.279,35.448z"/>
	</g>
	<clipPath id="clip-path">
		<path fill-rule="evenodd" clip-rule="evenodd" d="M105.279,35.448c-1.021,2.063-2.49,2.853-4.232,4.346
			c-5.263,4.519-11.254,9.177-17.39,13.997c-7.592,5.964-20.822,14.527-19.272,27.031c1.423,11.458,16.79,20.402,25.854,27.514
			c10.629,8.34,26.393,18.925,27.733,32.822c0.287,2.996,0.064,6.232-0.941,9.17c-5.727,16.736-25.739,24.33-37.603,36.201
			c-3.459-0.174-5.566,0.098-8.932,0c6.424-7.748,14.463-11.91,23.031-18.824c6.525-5.26,18.158-13.688,18.333-24.135
			c0.117-6.846-6.271-13.611-10.344-17.375c-5.104-4.726-10.419-8.98-15.037-12.55c-11.354-8.776-33.676-21.83-27.266-41.513
			c5.285-16.222,26.914-26.519,37.605-36.685C99.639,35.448,102.459,35.448,105.279,35.448z"/>
	</clipPath>
	<g clip-path="url(#clip-path)">
		<rect height="100%" width="100%" class="sinus-rect"></rect>
	</g>
</g>
</svg>
